<svg id="Illus_3" data-name="Illus / 3" xmlns="http://www.w3.org/2000/svg" xmlns:xlink="http://www.w3.org/1999/xlink" width="303" height="150" viewBox="0 0 303 150">
  <defs>
    <filter id="Fill_92" x="204" y="64" width="70" height="56" filterUnits="userSpaceOnUse">
      <feOffset dx="2" dy="4" input="SourceAlpha"/>
      <feGaussianBlur stdDeviation="8" result="blur"/>
      <feFlood flood-opacity="0.102"/>
      <feComposite operator="in" in2="blur"/>
      <feComposite in="SourceGraphic"/>
    </filter>
    <filter id="Fill_94" x="212" y="26" width="55" height="67" filterUnits="userSpaceOnUse">
      <feOffset dx="2" dy="4" input="SourceAlpha"/>
      <feGaussianBlur stdDeviation="8" result="blur-2"/>
      <feFlood flood-opacity="0.102"/>
      <feComposite operator="in" in2="blur-2"/>
      <feComposite in="SourceGraphic"/>
    </filter>
    <filter id="Fill_96" x="206" y="42" width="64" height="63" filterUnits="userSpaceOnUse">
      <feOffset dx="2" dy="4" input="SourceAlpha"/>
      <feGaussianBlur stdDeviation="8" result="blur-3"/>
      <feFlood flood-opacity="0.102"/>
      <feComposite operator="in" in2="blur-3"/>
      <feComposite in="SourceGraphic"/>
    </filter>
    <filter id="Fill_98" x="201" y="53" width="70" height="55" filterUnits="userSpaceOnUse">
      <feOffset dx="2" dy="4" input="SourceAlpha"/>
      <feGaussianBlur stdDeviation="8" result="blur-4"/>
      <feFlood flood-opacity="0.102"/>
      <feComposite operator="in" in2="blur-4"/>
      <feComposite in="SourceGraphic"/>
    </filter>
    <filter id="Fill_100" x="221" y="35" width="59" height="65" filterUnits="userSpaceOnUse">
      <feOffset dx="2" dy="4" input="SourceAlpha"/>
      <feGaussianBlur stdDeviation="8" result="blur-5"/>
      <feFlood flood-opacity="0.102"/>
      <feComposite operator="in" in2="blur-5"/>
      <feComposite in="SourceGraphic"/>
    </filter>
    <filter id="Fill_102" x="229" y="54" width="55" height="58" filterUnits="userSpaceOnUse">
      <feOffset dx="2" dy="4" input="SourceAlpha"/>
      <feGaussianBlur stdDeviation="8" result="blur-6"/>
      <feFlood flood-opacity="0.102"/>
      <feComposite operator="in" in2="blur-6"/>
      <feComposite in="SourceGraphic"/>
    </filter>
    <filter id="Fill_104" x="238" y="44" width="59" height="62" filterUnits="userSpaceOnUse">
      <feOffset dx="2" dy="4" input="SourceAlpha"/>
      <feGaussianBlur stdDeviation="8" result="blur-7"/>
      <feFlood flood-opacity="0.102"/>
      <feComposite operator="in" in2="blur-7"/>
      <feComposite in="SourceGraphic"/>
    </filter>
    <filter id="Fill_106" x="235" y="65" width="61" height="53" filterUnits="userSpaceOnUse">
      <feOffset dx="2" dy="4" input="SourceAlpha"/>
      <feGaussianBlur stdDeviation="8" result="blur-8"/>
      <feFlood flood-opacity="0.102"/>
      <feComposite operator="in" in2="blur-8"/>
      <feComposite in="SourceGraphic"/>
    </filter>
    <filter id="Fill_108" x="232" y="85" width="71" height="60" filterUnits="userSpaceOnUse">
      <feOffset dx="2" dy="4" input="SourceAlpha"/>
      <feGaussianBlur stdDeviation="8" result="blur-9"/>
      <feFlood flood-opacity="0.102"/>
      <feComposite operator="in" in2="blur-9"/>
      <feComposite in="SourceGraphic"/>
    </filter>
    <filter id="Fill_110" x="221" y="80" width="51" height="60" filterUnits="userSpaceOnUse">
      <feOffset dx="2" dy="4" input="SourceAlpha"/>
      <feGaussianBlur stdDeviation="8" result="blur-10"/>
      <feFlood flood-opacity="0.102"/>
      <feComposite operator="in" in2="blur-10"/>
      <feComposite in="SourceGraphic"/>
    </filter>
    <filter id="Fill_112" x="209" y="78" width="57" height="61" filterUnits="userSpaceOnUse">
      <feOffset dx="2" dy="4" input="SourceAlpha"/>
      <feGaussianBlur stdDeviation="8" result="blur-11"/>
      <feFlood flood-opacity="0.102"/>
      <feComposite operator="in" in2="blur-11"/>
      <feComposite in="SourceGraphic"/>
    </filter>
    <filter id="Fill_114" x="196" y="76" width="66" height="53" filterUnits="userSpaceOnUse">
      <feOffset dx="2" dy="4" input="SourceAlpha"/>
      <feGaussianBlur stdDeviation="8" result="blur-12"/>
      <feFlood flood-opacity="0.102"/>
      <feComposite operator="in" in2="blur-12"/>
      <feComposite in="SourceGraphic"/>
    </filter>
    <filter id="Fill_296" x="14" y="22" width="107" height="115" filterUnits="userSpaceOnUse">
      <feOffset dx="2" dy="4" input="SourceAlpha"/>
      <feGaussianBlur stdDeviation="8" result="blur-13"/>
      <feFlood flood-opacity="0.102"/>
      <feComposite operator="in" in2="blur-13"/>
      <feComposite in="SourceGraphic"/>
    </filter>
    <filter id="Fill_298" x="63" y="29" width="85" height="85" filterUnits="userSpaceOnUse">
      <feOffset dx="2" dy="4" input="SourceAlpha"/>
      <feGaussianBlur stdDeviation="8" result="blur-14"/>
      <feFlood flood-opacity="0.102"/>
      <feComposite operator="in" in2="blur-14"/>
      <feComposite in="SourceGraphic"/>
    </filter>
    <filter id="Fill_300" x="10" y="23" width="74" height="108" filterUnits="userSpaceOnUse">
      <feOffset dx="2" dy="4" input="SourceAlpha"/>
      <feGaussianBlur stdDeviation="8" result="blur-15"/>
      <feFlood flood-opacity="0.102"/>
      <feComposite operator="in" in2="blur-15"/>
      <feComposite in="SourceGraphic"/>
    </filter>
    <clipPath id="clip-path">
      <path id="Clip_341" data-name="Clip 341" d="M0,0H28.438V58.632H0Z" transform="translate(0.12 0.368)" fill="none"/>
    </clipPath>
    <filter id="Fill_148" x="109" y="7" width="51" height="70" filterUnits="userSpaceOnUse">
      <feOffset dx="2" dy="4" input="SourceAlpha"/>
      <feGaussianBlur stdDeviation="8" result="blur-16"/>
      <feFlood flood-opacity="0.102"/>
      <feComposite operator="in" in2="blur-16"/>
      <feComposite in="SourceGraphic"/>
    </filter>
    <filter id="Fill_150" x="116" y="11" width="49" height="49" filterUnits="userSpaceOnUse">
      <feOffset dx="2" dy="4" input="SourceAlpha"/>
      <feGaussianBlur stdDeviation="8" result="blur-17"/>
      <feFlood flood-opacity="0.102"/>
      <feComposite operator="in" in2="blur-17"/>
      <feComposite in="SourceGraphic"/>
    </filter>
    <filter id="Path" x="148" y="89.552" width="49" height="52" filterUnits="userSpaceOnUse">
      <feOffset dx="2" dy="4" input="SourceAlpha"/>
      <feGaussianBlur stdDeviation="8" result="blur-18"/>
      <feFlood flood-opacity="0.102"/>
      <feComposite operator="in" in2="blur-18"/>
      <feComposite in="SourceGraphic"/>
    </filter>
    <filter id="Path-2" x="150" y="88.552" width="52" height="54" filterUnits="userSpaceOnUse">
      <feOffset dx="2" dy="4" input="SourceAlpha"/>
      <feGaussianBlur stdDeviation="8" result="blur-19"/>
      <feFlood flood-opacity="0.102"/>
      <feComposite operator="in" in2="blur-19"/>
      <feComposite in="SourceGraphic"/>
    </filter>
    <filter id="Path-3" x="137" y="76.552" width="92" height="53" filterUnits="userSpaceOnUse">
      <feOffset dx="2" dy="4" input="SourceAlpha"/>
      <feGaussianBlur stdDeviation="8" result="blur-20"/>
      <feFlood flood-opacity="0.102"/>
      <feComposite operator="in" in2="blur-20"/>
      <feComposite in="SourceGraphic"/>
    </filter>
    <filter id="Path-4" x="143" y="88.552" width="52" height="54" filterUnits="userSpaceOnUse">
      <feOffset dx="2" dy="4" input="SourceAlpha"/>
      <feGaussianBlur stdDeviation="8" result="blur-21"/>
      <feFlood flood-opacity="0.102"/>
      <feComposite operator="in" in2="blur-21"/>
      <feComposite in="SourceGraphic"/>
    </filter>
  </defs>
  <g id="Trees" transform="translate(218 46)">
    <g transform="matrix(1, 0, 0, 1, -218, -46)" filter="url(#Fill_92)">
      <path id="Fill_92-2" data-name="Fill 92" d="M21.743,7.045A22.022,22.022,0,0,0,0,.759,38.215,38.215,0,0,0,22,8" transform="translate(226 84)" fill="#390b12"/>
    </g>
    <g transform="matrix(1, 0, 0, 1, -218, -46)" filter="url(#Fill_94)">
      <path id="Fill_94-2" data-name="Fill 94" d="M6.8,19A22.619,22.619,0,0,0,.007,0,30.492,30.492,0,0,0,6.8,19" transform="translate(234 46)" fill="#390b12"/>
    </g>
    <g transform="matrix(1, 0, 0, 1, -218, -46)" filter="url(#Fill_96)">
      <path id="Fill_96-2" data-name="Fill 96" d="M15.94,14.932A34.421,34.421,0,0,0,0,0,21.718,21.718,0,0,0,16,15" transform="translate(228 62)" fill="#390b12"/>
    </g>
    <g transform="matrix(1, 0, 0, 1, -218, -46)" filter="url(#Fill_98)">
      <path id="Fill_98-2" data-name="Fill 98" d="M22,6.968A42.5,42.5,0,0,1,10.118,5.937,19.734,19.734,0,0,1,0,0,40.182,40.182,0,0,1,21.94,6.587" transform="translate(223 73)" fill="#390b12"/>
    </g>
    <g transform="matrix(1, 0, 0, 1, -218, -46)" filter="url(#Fill_100)">
      <path id="Fill_100-2" data-name="Fill 100" d="M0,17C1.946,9.452,5.158,4.231,10.891,0A16.291,16.291,0,0,1,8.477,10.579,15.368,15.368,0,0,1,0,17" transform="translate(243 55)" fill="#390b12"/>
    </g>
    <g transform="matrix(1, 0, 0, 1, -218, -46)" filter="url(#Fill_102)">
      <path id="Fill_102-2" data-name="Fill 102" d="M7,10A10.8,10.8,0,0,0,0,0C.34,3.766,3.5,8.124,7,10" transform="translate(251 74)" fill="#390b12"/>
    </g>
    <g transform="matrix(1, 0, 0, 1, -218, -46)" filter="url(#Fill_104)">
      <path id="Fill_104-2" data-name="Fill 104" d="M11,0C9.618,6.218,5.939,11.4,0,14A16.475,16.475,0,0,1,11,0Z" transform="translate(260 64)" fill="#390b12"/>
    </g>
    <g transform="matrix(1, 0, 0, 1, -218, -46)" filter="url(#Fill_106)">
      <path id="Fill_106-2" data-name="Fill 106" d="M0,4.183A10.35,10.35,0,0,1,5.9.66,32.56,32.56,0,0,1,13,0,17.2,17.2,0,0,1,.181,4.986" transform="translate(257 85)" fill="#390b12"/>
    </g>
    <g transform="matrix(1, 0, 0, 1, -218, -46)" filter="url(#Fill_108)">
      <path id="Fill_108-2" data-name="Fill 108" d="M0,.844a18.632,18.632,0,0,1,13.619,1A19.307,19.307,0,0,1,23,12,48.718,48.718,0,0,1,0,.844" transform="translate(254 105)" fill="#390b12"/>
    </g>
    <g transform="matrix(1, 0, 0, 1, -218, -46)" filter="url(#Fill_110)">
      <path id="Fill_110-2" data-name="Fill 110" d="M2.285,0c1.237,3.908,1,8.632-1.75,12A15.172,15.172,0,0,1,2.285,0" transform="translate(243 100)" fill="#390b12"/>
    </g>
    <g transform="matrix(1, 0, 0, 1, -218, -46)" filter="url(#Fill_112)">
      <path id="Fill_112-2" data-name="Fill 112" d="M9,0A15.9,15.9,0,0,1,1.056,12.833a.825.825,0,0,1-.7.127c-.35-.157-.382-.683-.339-1.1C.578,6.478,4.207,1.269,9,0" transform="translate(231 98)" fill="#390b12"/>
    </g>
    <g transform="matrix(1, 0, 0, 1, -218, -46)" filter="url(#Fill_114)">
      <path id="Fill_114-2" data-name="Fill 114" d="M18,.621A11.962,11.962,0,0,1,9.02,5,11.933,11.933,0,0,1,0,.723C5.722.029,12.323-.433,18,.621" transform="translate(218 96)" fill="#390b12"/>
    </g>
    <path id="Fill_116" data-name="Fill 116" d="M0,0A1.011,1.011,0,0,0,.054.169L.234.657C.4,1.1.639,1.723.944,2.526s.682,1.805,1.106,2.963l.682,1.853L3.469,9.43c1.043,2.923,2.2,6.43,3.453,10.336C8.15,23.678,9.44,28,10.709,32.555c1.252,4.564,2.362,8.932,3.307,12.92.918,3.993,1.708,7.6,2.278,10.644q.219,1.141.418,2.17l.337,1.942c.214,1.212.4,2.256.519,3.113s.237,1.508.309,1.971l.086.512A1.039,1.039,0,0,0,18,66a1.016,1.016,0,0,0-.014-.176c-.015-.126-.037-.3-.064-.515l-.267-1.977c-.109-.86-.28-1.906-.481-3.121l-.32-1.946q-.191-1.03-.4-2.174c-.551-3.051-1.325-6.662-2.232-10.661-.934-3.993-2.039-8.366-3.292-12.932-1.27-4.56-2.567-8.881-3.806-12.792C5.857,15.8,4.683,12.3,3.619,9.378L2.868,7.295l-.7-1.848C1.734,4.293,1.356,3.3,1.026,2.5L.276.641l-.2-.48A1.061,1.061,0,0,0,0,0" transform="translate(17 5)" fill="#272422"/>
    <path id="Fill_118" data-name="Fill 118" d="M16,0a.634.634,0,0,0-.1.095L15.62.388c-.243.259-.6.646-1.037,1.158a40.832,40.832,0,0,0-3.435,4.57,30.65,30.65,0,0,0-3.592,7.666A74.91,74.91,0,0,0,5.4,23.927c-1.187,7.258-2.642,13.758-3.7,18.46C1.173,44.726.742,46.624.44,47.953L.1,49.468c-.034.164-.061.295-.082.4A.622.622,0,0,0,0,50a.625.625,0,0,0,.043-.131l.1-.39.377-1.506,1.333-5.551C2.951,37.729,4.432,31.228,5.62,23.963A76.656,76.656,0,0,1,7.751,13.842,30.982,30.982,0,0,1,11.28,6.2a43.954,43.954,0,0,1,3.369-4.6c.43-.519.772-.916,1-1.184L15.916.11A.631.631,0,0,0,16,0" transform="translate(33 21)" fill="#272422"/>
    <path id="Fill_120" data-name="Fill 120" d="M.208.046l.6.066.432.042.51.076c.366.054.784.108,1.239.209L3.7.581l.768.194c.534.12,1.086.315,1.675.493A24.686,24.686,0,0,1,9.8,2.875a20.641,20.641,0,0,1,3.277,2.271,16.4,16.4,0,0,1,1.258,1.2A13.1,13.1,0,0,1,15.331,7.5a11.9,11.9,0,0,1,.737,1.013,7.479,7.479,0,0,1,.5.8l.306.516A.784.784,0,0,0,17,10a.753.753,0,0,0-.081-.194l-.271-.538a6.632,6.632,0,0,0-.476-.826A11.042,11.042,0,0,0,15.455,7.4a12.418,12.418,0,0,0-.985-1.175,15.762,15.762,0,0,0-1.258-1.233,19.939,19.939,0,0,0-3.3-2.311,23.518,23.518,0,0,0-3.7-1.607C5.615.9,5.057.712,4.516.6L3.74.415,3.015.286C2.555.194,2.133.151,1.763.108L1.248.05.813.026.211,0A.783.783,0,0,0,0,.008.779.779,0,0,0,.208.046Z" transform="translate(17 51)" fill="#272422"/>
    <path id="Fill_122" data-name="Fill 122" d="M0,0A2.775,2.775,0,0,0,.406.386l1.156.99c.983.829,2.35,1.963,3.869,3.206s2.9,2.359,3.91,3.159l1.2.938A2.763,2.763,0,0,0,11,9a2.869,2.869,0,0,0-.406-.385l-1.157-.99c-.983-.829-2.35-1.963-3.868-3.2S2.668,2.061,1.66,1.261L.46.323A2.837,2.837,0,0,0,0,0" transform="translate(15 22)" fill="#fff"/>
    <path id="Fill_124" data-name="Fill 124" d="M0,0c-.018.058,3.1,1,6.967,2.1S13.982,4.055,14,4s-3.1-1-6.968-2.1S.018-.055,0,0" transform="translate(14 29)" fill="#fff"/>
    <path id="Fill_126" data-name="Fill 126" d="M0,11a2.564,2.564,0,0,0,.3-.444l.777-1.241c.659-1.045,1.594-2.471,2.7-3.989S5.955,2.487,6.74,1.543L7.673.427A2.574,2.574,0,0,0,8,0a2.457,2.457,0,0,0-.387.366c-.24.246-.577.611-.985,1.07-.816.919-1.9,2.23-3.016,3.753S1.582,8.16.955,9.229c-.314.535-.56.973-.72,1.281A2.584,2.584,0,0,0,0,11" transform="translate(25 15)" fill="#fff"/>
    <path id="Fill_128" data-name="Fill 128" d="M0,0A9.685,9.685,0,0,0,.772,1.155c.491.7,1.157,1.68,1.847,2.783S3.89,6.063,4.3,6.807A9.618,9.618,0,0,0,5,8a6.794,6.794,0,0,0-.543-1.26c-.374-.763-.936-1.8-1.628-2.91S1.441,1.753.913,1.069A7.334,7.334,0,0,0,0,0" transform="translate(35 31)" fill="#fff"/>
    <path id="Fill_130" data-name="Fill 130" d="M0,4c.016.032.6-.267,1.568-.716S3.876,2.245,5.4,1.692,8.321.731,9.344.459,11.007.04,11,.005a1.776,1.776,0,0,0-.459.05C10.247.1,9.826.183,9.308.3A33.368,33.368,0,0,0,5.321,1.472,33.746,33.746,0,0,0,1.5,3.133c-.475.245-.854.453-1.111.607A1.806,1.806,0,0,0,0,4" transform="translate(39 40)" fill="#fff"/>
    <path id="Fill_132" data-name="Fill 132" d="M0,0A.693.693,0,0,0,.189.067L.742.208l2.041.47A67.48,67.48,0,0,1,9.449,2.435a29.612,29.612,0,0,1,6.219,2.918c.743.473,1.323.89,1.714,1.191A5.967,5.967,0,0,0,18,7c0-.006-.042-.055-.137-.145s-.234-.223-.426-.379A18.046,18.046,0,0,0,15.754,5.22a27.291,27.291,0,0,0-6.233-3A55.85,55.85,0,0,0,2.816.524L.76.123A5.1,5.1,0,0,0,0,0" transform="translate(36 60)" fill="#fff"/>
    <path id="Fill_134" data-name="Fill 134" d="M.006,10c.043.009.3-2.222.571-4.983S1.037.009.994,0,.7,2.221.423,4.983-.037,9.991.006,10" transform="translate(26 54)" fill="#fff"/>
    <path id="Fill_136" data-name="Fill 136" d="M1.029,6.827C1.645,6.09,2.5,5.075,3.464,3.972s1.86-2.087,2.51-2.8A11.548,11.548,0,0,0,7,0a1.5,1.5,0,0,0-.326.268c-.2.183-.481.455-.821.8-.682.684-1.6,1.653-2.567,2.759S1.48,5.966.9,6.729c-.292.382-.523.694-.676.915A1.454,1.454,0,0,0,0,8,11.515,11.515,0,0,0,1.029,6.827Z" transform="translate(15 52)" fill="#fff"/>
    <path id="Fill_138" data-name="Fill 138" d="M23,0V5.256H21.664L16.915,20H6.382L1.781,5.4,0,5.256V0Z" transform="translate(21 70)" fill="#8f5f43"/>
    <path id="Fill_140" data-name="Fill 140" d="M0,.162C0,.223,4.7.273,10.5.273S21,.223,21,.162,16.3.051,10.5.051,0,.1,0,.162" transform="translate(21 74.838)" fill="#1a2e35"/>
    <path id="Fill_142" data-name="Fill 142" d="M0,0A4.124,4.124,0,0,0,.684.2L2.556.671C4.134,1.08,6.3,1.7,8.651,2.53s4.435,1.708,5.929,2.381l1.765.809A4.082,4.082,0,0,0,17,6a4.205,4.205,0,0,0-.618-.362c-.4-.221-1-.523-1.737-.88A59.876,59.876,0,0,0,8.723,2.3a59.436,59.436,0,0,0-6.13-1.8C1.8.322,1.151.186.7.107A4.024,4.024,0,0,0,0,0" transform="translate(14 41)" fill="#1a2e35"/>
    <path id="Fill_144" data-name="Fill 144" d="M0,.162C0,.223,3.134.273,7,.273s7-.05,7-.111S10.867.051,7,.051,0,.1,0,.162" transform="translate(25 82.838)" fill="#fafafa"/>
    <path id="Fill_146" data-name="Fill 146" d="M0,.162C0,.223,3.358.273,7.5.273S15,.223,15,.162,11.643.051,7.5.051,0,.1,0,.162" transform="translate(25 81.838)" fill="#fafafa"/>
  </g>
  <g id="Phone" transform="translate(145 6)">
    <path id="Fill_114-3" data-name="Fill 114" d="M10.6,143.233A10.624,10.624,0,0,1,0,132.586L.518,10.558A10.625,10.625,0,0,1,11.214,0L60.092.225a10.625,10.625,0,0,1,10.6,10.648L70.171,132.9a10.625,10.625,0,0,1-10.7,10.558Z" transform="translate(0 0)" fill="#8f5f43"/>
    <path id="Fill_116-2" data-name="Fill 116" d="M56.776.224,47.3.181a2.349,2.349,0,0,0-2.311,2.385l-.007,1.712A2.348,2.348,0,0,1,42.67,6.663L24.2,6.578a2.351,2.351,0,0,1-2.291-2.406l.007-1.712A2.351,2.351,0,0,0,19.624.054L16.291.038,8,0A7.441,7.441,0,0,0,.506,7.394L0,126.5a7.441,7.441,0,0,0,7.422,7.457l48.78.224a7.441,7.441,0,0,0,7.491-7.394L64.2,7.681A7.441,7.441,0,0,0,56.776.224" transform="translate(3.246 4.212)" fill="#fff"/>
  </g>
  <g id="Women">
    <path id="Fill_178" data-name="Fill 178" d="M24.45,0S1.765,6.024.855,6.331c-1.366.462-1.136,5.265.99,5.19,1.006-.035,17.424.587,19.5.462S29,9.743,29,9.743Z" transform="translate(24 136)" fill="#8f5f43"/>
    <path id="Fill_180" data-name="Fill 180" d="M2.949,4a16.63,16.63,0,0,0-1.13-2.15A20.3,20.3,0,0,0,0,.007,4.387,4.387,0,0,1,2.191,1.683,2.952,2.952,0,0,1,2.949,4" transform="translate(36 140)" fill="#1a2e35"/>
    <path id="Fill_182" data-name="Fill 182" d="M1.968,4c-.1.018-.306-.972-.85-2.065S-.068.077.006,0A3.925,3.925,0,0,1,1.423,1.777,4.036,4.036,0,0,1,1.968,4" transform="translate(39 139)" fill="#1a2e35"/>
    <path id="Fill_184" data-name="Fill 184" d="M1.844,4a11.871,11.871,0,0,0-.553-2.118A13.387,13.387,0,0,0,.006.006,3.274,3.274,0,0,1,1.66,1.759,2.628,2.628,0,0,1,1.844,4" transform="translate(42 139)" fill="#1a2e35"/>
    <path id="Fill_186" data-name="Fill 186" d="M.238,5.632A4.627,4.627,0,0,1,0,3.829,9.25,9.25,0,0,1,.225,1.852,8.917,8.917,0,0,1,.555.727,1.379,1.379,0,0,1,.911.132a.556.556,0,0,1,.763.042,1.115,1.115,0,0,1,.3.685A5.174,5.174,0,0,1,2,1.5a5.8,5.8,0,0,1-.137,1.186,7.577,7.577,0,0,1-.684,1.853A4.834,4.834,0,0,1,.18,6C.129,5.959.5,5.4.945,4.407a8.481,8.481,0,0,0,.582-1.8A5.758,5.758,0,0,0,1.635,1.5c-.01-.373,0-.838-.2-1.017A.2.2,0,0,0,1.136.453,1.041,1.041,0,0,0,.893.877,9.516,9.516,0,0,0,.556,1.946,10.542,10.542,0,0,0,.262,3.839C.2,4.937.3,5.622.238,5.632" transform="translate(43 134)" fill="#1a2e35"/>
    <path id="Fill_188" data-name="Fill 188" d="M0,.193A2.992,2.992,0,0,1,1.289,0,6.24,6.24,0,0,1,2.708.162a3.285,3.285,0,0,1,.817.279.768.768,0,0,1,.452.847.968.968,0,0,1-.72.661,1.956,1.956,0,0,1-.9,0,3.551,3.551,0,0,1-1.3-.592A3.384,3.384,0,0,1,.131.506,8.834,8.834,0,0,1,1.2,1.175a3.7,3.7,0,0,0,1.226.492,1.705,1.705,0,0,0,.741-.009.657.657,0,0,0,.487-.441A.47.47,0,0,0,3.353.7,3.18,3.18,0,0,0,2.628.438,7.184,7.184,0,0,0,1.282.22C.5.169.009.243,0,.193" transform="translate(43 140)" fill="#1a2e35"/>
    <path id="Fill_190" data-name="Fill 190" d="M1.8,4a11.717,11.717,0,0,0-.514-2.136A12.632,12.632,0,0,0,.005.011a2.9,2.9,0,0,1,1.682,1.7A2.512,2.512,0,0,1,1.8,4" transform="translate(34 141)" fill="#1a2e35"/>
    <path id="Fill_192" data-name="Fill 192" d="M24,.006a4.64,4.64,0,0,1-.865.408,19.154,19.154,0,0,1-2.489.772A35.451,35.451,0,0,1,12.1,2c-3.352-.037-6.373-.19-8.564-.278L.949,1.582A4.636,4.636,0,0,1,0,1.48a4.669,4.669,0,0,1,.953-.044l2.6.018,8.558.168a39.958,39.958,0,0,0,8.48-.694C22.725.488,23.974-.063,24,.006" transform="translate(27 146)" fill="#1a2e35"/>
    <path id="Fill_194" data-name="Fill 194" d="M11,1.934c-.031.053-.651-.311-1.7-.772A7.867,7.867,0,0,0,5.014.447,6.784,6.784,0,0,0,1.308,2.659,13.267,13.267,0,0,1,0,4,7.057,7.057,0,0,1,1.111,2.477a9.011,9.011,0,0,1,1.5-1.411,5.378,5.378,0,0,1,2.341-1A7.465,7.465,0,0,1,9.415.918,6.018,6.018,0,0,1,11,1.934" transform="translate(41 144)" fill="#1a2e35"/>
    <path id="Fill_196" data-name="Fill 196" d="M1.091,6c-.043-.03.161-.351.349-.918A4.682,4.682,0,0,0,1.614,2.8,4.652,4.652,0,0,0,.65.733C.275.273-.028.047,0,0S.378.131.82.577A4.2,4.2,0,0,1,1.934,2.741a4.237,4.237,0,0,1-.281,2.425c-.256.578-.534.856-.563.833" transform="translate(28 141)" fill="#1a2e35"/>
    <path id="Fill_198" data-name="Fill 198" d="M3.961,0s22.968,3.526,23.9,3.735c1.4.315,1.759,5.3-.335,5.472-.99.082-17,2.67-19.053,2.787S0,10.412,0,10.412Z" transform="translate(68 136)" fill="#8f5f43"/>
    <path id="Fill_200" data-name="Fill 200" d="M.087,5A24.263,24.263,0,0,1,.742,2.361,22.8,22.8,0,0,1,2,.006a4.1,4.1,0,0,0-1.578,2.2A4.668,4.668,0,0,0,.087,5" transform="translate(82 139)" fill="#1a2e35"/>
    <path id="Fill_202" data-name="Fill 202" d="M.081,4c.13.005.247-.953.777-2.047S2.094.062,1.99,0A3.939,3.939,0,0,0,.445,1.84,2.915,2.915,0,0,0,.081,4" transform="translate(79 139)" fill="#1a2e35"/>
    <path id="Fill_204" data-name="Fill 204" d="M.186,5A26.018,26.018,0,0,1,.347,2.4,22.281,22.281,0,0,1,1,.006,4.129,4.129,0,0,0,.1,2.3,5.683,5.683,0,0,0,.186,5" transform="translate(77 138)" fill="#1a2e35"/>
    <path id="Fill_206" data-name="Fill 206" d="M1.914,4.693a4.028,4.028,0,0,0,.035-1.565,7.919,7.919,0,0,0-.375-1.66A7.525,7.525,0,0,0,1.188.546,1.147,1.147,0,0,0,.831.079.476.476,0,0,0,.187.2.978.978,0,0,0,0,.816a4.371,4.371,0,0,0,.035.549,4.958,4.958,0,0,0,.227,1,6.382,6.382,0,0,0,.752,1.5A4.033,4.033,0,0,0,2,5c.04-.038-.329-.479-.8-1.272A7.107,7.107,0,0,1,.538,2.255a4.944,4.944,0,0,1-.194-.932C.317,1,.27.608.423.433.5.339.584.323.67.377A.871.871,0,0,1,.916.711a8.029,8.029,0,0,1,.385.875,8.949,8.949,0,0,1,.426,1.581c.158.929.135,1.525.188,1.527" transform="translate(75 135)" fill="#1a2e35"/>
    <path id="Fill_208" data-name="Fill 208" d="M4,.113A2.4,2.4,0,0,0,2.647.046,5.1,5.1,0,0,0,1.207.477a3.05,3.05,0,0,0-.8.5A1.19,1.19,0,0,0,.051,2.192a1.091,1.091,0,0,0,.83.786A1.585,1.585,0,0,0,1.8,2.841a3.608,3.608,0,0,0,1.259-1A4.49,4.49,0,0,0,3.907.556,9.8,9.8,0,0,0,2.9,1.621a3.6,3.6,0,0,1-1.2.85,1.363,1.363,0,0,1-.765.1.742.742,0,0,1-.56-.524A.723.723,0,0,1,.614,1.3,3.034,3.034,0,0,1,1.326.838a6.06,6.06,0,0,1,1.358-.5C3.483.155,4,.181,4,.113" transform="translate(73 139)" fill="#1a2e35"/>
    <path id="Fill_210" data-name="Fill 210" d="M.214,4a17.038,17.038,0,0,1,.144-2.09A14.731,14.731,0,0,1,1,.008C.961-.079.333.568.1,1.808A3.553,3.553,0,0,0,.214,4" transform="translate(85 140)" fill="#1a2e35"/>
    <path id="Fill_212" data-name="Fill 212" d="M0,1.2a5.172,5.172,0,0,0,.907.257,22.167,22.167,0,0,0,2.563.4,41.562,41.562,0,0,0,8.574-.18c3.324-.371,6.3-.807,8.468-1.1L23.07.191A5.337,5.337,0,0,0,24,.008a5.463,5.463,0,0,0-.952.059L20.474.346,12,1.356a46.863,46.863,0,0,1-8.5.272C1.322,1.473.018,1.134,0,1.2" transform="translate(70 145)" fill="#1a2e35"/>
    <path id="Fill_214" data-name="Fill 214" d="M0,2.33c.036.044.6-.35,1.57-.877A8.246,8.246,0,0,1,5.681.347,6.959,6.959,0,0,1,9.565,1.935,12.949,12.949,0,0,0,11,3,6.58,6.58,0,0,0,9.736,1.75,8.812,8.812,0,0,0,8.1.646,5.642,5.642,0,0,0,5.7,0,7.809,7.809,0,0,0,1.432,1.246,5.834,5.834,0,0,0,0,2.33" transform="translate(69 145)" fill="#1a2e35"/>
    <path id="Fill_216" data-name="Fill 216" d="M51.306,10.788l.542-1.094a3.118,3.118,0,0,0-.315-1.1c-.263-.461-1.2-.424-1.2-.424l.141-.306a1.366,1.366,0,0,0-.115-1.347c-.042-.06-.087-.12-.136-.181a2.229,2.229,0,0,0-1.181-.6s.53-1.028.3-1.458a2.206,2.206,0,0,0-2.269-.9,32.662,32.662,0,0,0-4.13,1.978.968.968,0,0,1-1.383-.511,14.1,14.1,0,0,0-2.016-3.811,2.091,2.091,0,0,0-2.488-.9.454.454,0,0,0-.225.658,24.44,24.44,0,0,1,1.449,2.654c.259.7.55,5.974.55,5.974l-1.438,2.752-14.53,23.05S.945,20.373,1.032,20L0,37.024,16.519,48.049A11.6,11.6,0,0,0,33.605,43L44.721,18.755l1.349-1.983L51.3,13.4s.855-1.512.669-1.955A1.429,1.429,0,0,0,51.306,10.788Z" transform="translate(91 31)" fill="#ffbf9d"/>
    <path id="Fill_218" data-name="Fill 218" d="M6,1.531a.538.538,0,0,1-.1.091l-.294.241-1.094.867L2.883,4c-.312.234-.619.5-.987.731a1.413,1.413,0,0,1-1.3.174.982.982,0,0,1-.482-.5A1.455,1.455,0,0,1,0,3.735,1.937,1.937,0,0,1,.521,2.6a7.46,7.46,0,0,1,.815-.762l.736-.623,1.071-.9.3-.238A.556.556,0,0,1,3.546,0a.507.507,0,0,1-.092.1l-.28.257-1.045.927L1.4,1.916a7.582,7.582,0,0,0-.8.759A1.824,1.824,0,0,0,.125,3.742a1.057,1.057,0,0,0,.524,1.05,1.034,1.034,0,0,0,.612.061,1.7,1.7,0,0,0,.574-.228c.352-.217.667-.486.98-.717L4.462,2.658,5.58,1.823,5.887,1.6A.519.519,0,0,1,6,1.531" transform="translate(134 35)" fill="#ff9a6c"/>
    <path id="Fill_220" data-name="Fill 220" d="M6,0A1.478,1.478,0,0,1,5.751.22c-.166.133-.41.319-.715.543-.611.449-1.471,1.045-2.451,1.653a7.305,7.305,0,0,1-.735.421,1.492,1.492,0,0,1-.783.156A1.237,1.237,0,0,1,.054,2.136,1.318,1.318,0,0,1,.124,1.2,1.047,1.047,0,0,1,.259.989C.3.947.319.926.322.929s-.071.1-.15.3A1.31,1.31,0,0,0,.146,2.1a1.138,1.138,0,0,0,.934.758A1.4,1.4,0,0,0,1.8,2.708a7.522,7.522,0,0,0,.719-.417C3.492,1.685,4.358,1.105,4.982.679L5.72.174A1.493,1.493,0,0,1,6,0" transform="translate(136 39)" fill="#ff9a6c"/>
    <path id="Fill_222" data-name="Fill 222" d="M5,0a1.122,1.122,0,0,1-.235.146L4.1.5c-.561.293-1.339.689-2.2,1.119a6.335,6.335,0,0,1-.644.3,1.175,1.175,0,0,1-.67.057.737.737,0,0,1-.5-.379.92.92,0,0,1-.077-.559A1.2,1.2,0,0,1,.4.358.723.723,0,0,1,.631.2,2.718,2.718,0,0,1,.436.4,1.218,1.218,0,0,0,.1,1.05a.829.829,0,0,0,.08.492.631.631,0,0,0,.433.313,1.074,1.074,0,0,0,.606-.061,6.346,6.346,0,0,0,.63-.294C2.712,1.07,3.5.687,4.066.416L4.744.1A1.119,1.119,0,0,1,5,0" transform="translate(137 41)" fill="#ff9a6c"/>
    <path id="Fill_224" data-name="Fill 224" d="M5,.336a7.452,7.452,0,0,1-.888.173C3.559.6,2.795.725,1.947.853L1.329.946A3.432,3.432,0,0,1,.732,1,1.051,1.051,0,0,1,.2.857.382.382,0,0,1,0,.521.6.6,0,0,1,.341.077.514.514,0,0,1,.57,0C.575.01.491.033.376.11A.556.556,0,0,0,.1.522.322.322,0,0,0,.278.79.937.937,0,0,0,.736.9,3.329,3.329,0,0,0,1.3.843L1.919.749C2.766.621,3.534.51,4.092.435A7.736,7.736,0,0,1,5,.336" transform="translate(138 43)" fill="#ff9a6c"/>
    <path id="Fill_226" data-name="Fill 226" d="M3,.634A4.253,4.253,0,0,0,1.49.354,4.682,4.682,0,0,0,0,.9,2.139,2.139,0,0,1,1.483.1,1.86,1.86,0,0,1,3,.634" transform="translate(134 42)" fill="#ff9a6c"/>
    <path id="Fill_228" data-name="Fill 228" d="M5.951,37.682S-1.459,31.371.258,27.025s6.47-6.5,8.809-14.4c1.868-6.314,13-18.475,26.191-9.333,0,0,4.465-.711,7,1.342s3.151,6.151,4.229,10.884c1.662,7.292,2.571,12.9-.645,16.461s-4.39,4.528-4.218,8.583c.224,5.292,2.536,4.584.542,8.443L31.108,45.354l-.115-3.075-1.121,2.894-6.437-2.338Z" transform="translate(52)" fill="#1a2e35"/>
    <path id="Fill_230" data-name="Fill 230" d="M18.263,0c-.707,1.637-.127,3.526.545,5.177s1.45,3.4,1.11,5.152c-.6,3.1-4.428,4.835-4.852,7.969-.228,1.68.609,3.388.285,5.052a5.794,5.794,0,0,1-3.064,3.63c-1.415.81-2.984,1.348-4.315,2.292,0,0-2.929,2.419-7.972-1.569" transform="translate(77 11)" fill="#1a2e35"/>
    <path id="Fill_232" data-name="Fill 232" d="M14.173.072A2.747,2.747,0,0,0,10.937,1.9L.226,37.485c-1.383,4.162,3.847,8.6,8.31,10.053,4.507,1.463,5.419-.681,6.852-4.6,2.395-6.546,3.25-9.018,3.24-8.98,0,0,5.98,1.028,9.715-5.948,1.857-3.469,3.764-9.554,5.163-14.583C34.766,8.9,33.721,2.447,29.15,1.38Z" transform="translate(60 7)" fill="#ffbf9d"/>
    <path id="Fill_234" data-name="Fill 234" d="M1.959,1.29a.991.991,0,0,1-1.241.666A1.008,1.008,0,0,1,.041.711.991.991,0,0,1,1.281.043,1.009,1.009,0,0,1,1.959,1.29" transform="translate(88 23)" fill="#1a2e35"/>
    <path id="Fill_236" data-name="Fill 236" d="M3.959,1.993c-.17.092-.736-.775-1.819-1.165C1.063.421.075.715,0,.534-.033.452.176.25.61.112A2.8,2.8,0,0,1,2.376.178a2.83,2.83,0,0,1,1.391,1.1c.244.388.274.677.192.716" transform="translate(87 21)" fill="#1a2e35"/>
    <path id="Fill_238" data-name="Fill 238" d="M1.959,1.29a.991.991,0,0,1-1.242.666A1.008,1.008,0,0,1,.041.711.991.991,0,0,1,1.281.043,1.009,1.009,0,0,1,1.959,1.29" transform="translate(78 20)" fill="#1a2e35"/>
    <path id="Fill_240" data-name="Fill 240" d="M3.96,1.993c-.17.092-.738-.775-1.82-1.165C1.063.421.075.715,0,.533-.033.451.175.25.61.112A2.8,2.8,0,0,1,2.376.178a2.824,2.824,0,0,1,1.391,1.1c.243.387.274.677.193.716" transform="translate(77 18)" fill="#1a2e35"/>
    <path id="Fill_242" data-name="Fill 242" d="M0,8.349a7.779,7.779,0,0,1,1.8.267c.276.061.548.094.656-.063a1.278,1.278,0,0,0,.1-.8q-.04-1.035-.083-2.17A32.681,32.681,0,0,1,2.551,0a32.935,32.935,0,0,1,.4,5.574Q2.976,6.709,3,7.744a1.463,1.463,0,0,1-.226,1.031A.733.733,0,0,1,2.2,9a2.039,2.039,0,0,1-.475-.089A7.478,7.478,0,0,1,0,8.349" transform="translate(82 20)" fill="#1a2e35"/>
    <path id="Fill_244" data-name="Fill 244" d="M9,6.213A19.9,19.9,0,0,1,0,0S.732,6.079,8.386,8Z" transform="translate(70 35)" fill="#ff9a6c"/>
    <path id="Fill_246" data-name="Fill 246" d="M2.957,1.154A1.728,1.728,0,0,0,1.7.044,1.589,1.589,0,0,0,.478.238.991.991,0,0,0,.03,1.287,1.162,1.162,0,0,0,1.115,2a3.667,3.667,0,0,0,1.4-.287,1.064,1.064,0,0,0,.353-.177A.318.318,0,0,0,2.985,1.2" transform="translate(78 30)" fill="#ff9a6c"/>
    <path id="Fill_248" data-name="Fill 248" d="M4.985.925C4.824,1.122,3.78.874,2.493.81,1.208.728.124.855.007.642-.044.541.185.367.649.219A5.592,5.592,0,0,1,2.58.01,5.306,5.306,0,0,1,4.442.435c.427.2.615.4.544.49" transform="translate(77 16)" fill="#1a2e35"/>
    <path id="Fill_250" data-name="Fill 250" d="M3.938,1.961c-.268.186-1.009-.334-1.975-.658C1.006.948.132.9.008.575-.043.42.149.209.566.085a2.9,2.9,0,0,1,1.712.1A3.192,3.192,0,0,1,3.732,1.2c.278.369.326.665.205.759" transform="translate(88 18)" fill="#1a2e35"/>
    <path id="Fill_252" data-name="Fill 252" d="M0,24.738,5.928,4.66a6.882,6.882,0,0,1,2-3.7A6.422,6.422,0,0,1,11.767.016,72.011,72.011,0,0,1,28.961,1.733c.27,1.363-.895,2.656-2.2,3.1a13.071,13.071,0,0,1-4.092.3,5.088,5.088,0,0,0-3.8,1.287c-.99,1.087-1.087,2.77-2.021,3.907-1.608,1.956-4.972,1.543-6.569,3.508C9.075,15.32,9.4,17.493,9,19.374c-.451,2.132-.451,2.132-2.1,5.268-1.012,1.924,1.535,5.6-1,10.358L.977,33.583l2.162-7.356L.21,33.126Z" transform="translate(62 6)" fill="#1a2e35"/>
    <path id="Fill_254" data-name="Fill 254" d="M.8.011c.123.065.06.353.053.767a2.842,2.842,0,0,0,.344,1.482,3.221,3.221,0,0,0,1.142,1.1c.378.23.674.346.662.476s-.36.233-.929.113A2.742,2.742,0,0,1,.319,2.677,2.313,2.313,0,0,1,.168.642C.383.147.691-.051.8.011" transform="translate(78 28)" fill="#1a2e35"/>
    <path id="Fill_256" data-name="Fill 256" d="M8,0a1.3,1.3,0,0,1-.266.157,8.268,8.268,0,0,0-.761.436A9.137,9.137,0,0,0,4.61,2.788,9.6,9.6,0,0,0,2.748,7.217a11.262,11.262,0,0,0,.02,2.881,18.078,18.078,0,0,1,.181,3.153,5.872,5.872,0,0,1-.329,1.591,9.692,9.692,0,0,1-.686,1.4A7.167,7.167,0,0,0,.853,18.861a9.324,9.324,0,0,0,.064,2.6c.109.818.249,1.578.3,2.289a6.274,6.274,0,0,1-.473,3.3,3.366,3.366,0,0,1-.512.746A1.348,1.348,0,0,1,0,28a4.785,4.785,0,0,0,.652-1,6.377,6.377,0,0,0,.378-3.233C.966,23.072.817,22.315.7,21.492a9.428,9.428,0,0,1-.089-2.67c.2-1.974,2.037-3.42,2.073-5.592a18.313,18.313,0,0,0-.175-3.1,11.36,11.36,0,0,1,0-2.948A9.628,9.628,0,0,1,4.462,2.665,8.7,8.7,0,0,1,6.92.5,5.921,5.921,0,0,1,7.711.107,1.268,1.268,0,0,1,8,0" transform="translate(69 12)" fill="#1a2e35"/>
    <path id="Fill_258" data-name="Fill 258" d="M8,35.093s-.029.029-.093.074a3.293,3.293,0,0,1-.3.19,4.826,4.826,0,0,1-1.273.5,5.531,5.531,0,0,1-2.174.075,4.864,4.864,0,0,1-4.117-4.2,4.492,4.492,0,0,1,.129-1.876A5.643,5.643,0,0,1,1.1,28.067a24.093,24.093,0,0,1,3.094-3.014,11.454,11.454,0,0,0,1.524-1.642A7.772,7.772,0,0,0,6.756,21.4,12.392,12.392,0,0,0,7.345,17a29.956,29.956,0,0,0-.454-4.159A37.785,37.785,0,0,0,5.024,5.977a39.8,39.8,0,0,0-1.963-4.4c-.263-.507-.474-.9-.62-1.161A2.685,2.685,0,0,1,2.236,0a2.9,2.9,0,0,1,.257.384c.163.255.39.638.67,1.139A35.307,35.307,0,0,1,5.218,5.91a36.576,36.576,0,0,1,1.938,6.885,29.68,29.68,0,0,1,.475,4.195,12.555,12.555,0,0,1-.6,4.5A7.972,7.972,0,0,1,5.95,23.57a11.62,11.62,0,0,1-1.563,1.68,24.291,24.291,0,0,0-3.073,2.967,5.436,5.436,0,0,0-.894,1.7A4.285,4.285,0,0,0,.284,31.7a4.69,4.69,0,0,0,3.907,4.075,5.519,5.519,0,0,0,2.119-.027A6.3,6.3,0,0,0,8,35.093" transform="translate(94 7)" fill="#1a2e35"/>
    <path id="Fill_260" data-name="Fill 260" d="M0,30a4.6,4.6,0,0,0,1.7-.866,7.035,7.035,0,0,0,2.251-4.667,27.441,27.441,0,0,0,.091-3.708,16.687,16.687,0,0,1,.325-4.285A8.037,8.037,0,0,1,5.22,14.3a5.125,5.125,0,0,1,1.668-1.758c1.433-.9,3.19-.858,4.751-1.419a5,5,0,0,0,2.023-1.359,12.673,12.673,0,0,0,1.431-1.985,11.048,11.048,0,0,1,2.945-3.655,4.945,4.945,0,0,1,2.047-.765,10.949,10.949,0,0,1,2.039-.091,20.324,20.324,0,0,0,3.608-.029,10.611,10.611,0,0,0,4.8-1.968,12.041,12.041,0,0,0,1.1-.922L31.9.083C31.963.025,32,0,32,0a7.65,7.65,0,0,1-1.408,1.356,10.473,10.473,0,0,1-4.834,2.078,20.109,20.109,0,0,1-3.64.065,6.566,6.566,0,0,0-3.942.84,10.893,10.893,0,0,0-2.855,3.584,12.816,12.816,0,0,1-1.461,2.03,5.258,5.258,0,0,1-2.131,1.432c-1.63.575-3.359.538-4.7,1.389a5.967,5.967,0,0,0-2.415,3.761,16.639,16.639,0,0,0-.343,4.218,26.908,26.908,0,0,1-.127,3.737,7.055,7.055,0,0,1-2.378,4.727A3.9,3.9,0,0,1,.491,29.9a2.719,2.719,0,0,1-.364.086A.411.411,0,0,1,0,30" transform="translate(56 5)" fill="#375a64"/>
    <path id="Fill_262" data-name="Fill 262" d="M0,8.54a6.38,6.38,0,0,0,1.054.281,5.254,5.254,0,0,0,2.883-.47A12.035,12.035,0,0,0,7.389,5.664c.588-.591,1.2-1.225,1.9-1.823a8.728,8.728,0,0,1,2.408-1.526A7.917,7.917,0,0,1,14.506,1.8a23.907,23.907,0,0,1,2.643.145c.835.079,1.627.161,2.366.168a10.378,10.378,0,0,0,2.045-.165A5.68,5.68,0,0,0,24.243.782,9.373,9.373,0,0,0,25,0a1.094,1.094,0,0,1-.145.245,1.843,1.843,0,0,1-.211.274,2.658,2.658,0,0,1-.328.341A5.579,5.579,0,0,1,21.6,2.142a10.234,10.234,0,0,1-2.084.2c-.755,0-1.553-.071-2.389-.143a24.672,24.672,0,0,0-2.614-.128,7.733,7.733,0,0,0-2.716.5A13.646,13.646,0,0,0,7.571,5.842,11.909,11.909,0,0,1,4.017,8.529a5.2,5.2,0,0,1-2.981.4,3.57,3.57,0,0,1-.787-.245A1.1,1.1,0,0,1,0,8.54" transform="translate(61 4)" fill="#375a64"/>
    <path id="Fill_264" data-name="Fill 264" d="M9.614,23a4.709,4.709,0,0,0,.25-1.041,4.764,4.764,0,0,0-.728-2.764,17.939,17.939,0,0,0-2.8-3.181,7.943,7.943,0,0,1-1.486-2.1,7.784,7.784,0,0,1-.633-2.751c-.118-1.942.192-3.759.152-5.4A6.839,6.839,0,0,0,3.245,1.676,3.755,3.755,0,0,0,1,.134,4.152,4.152,0,0,0,0,.107.925.925,0,0,1,.257.035,2.438,2.438,0,0,1,1.02.025,3.75,3.75,0,0,1,3.391,1.549a6.952,6.952,0,0,1,1.223,4.2c.053,1.678-.249,3.5-.132,5.39a7.573,7.573,0,0,0,.6,2.648,7.813,7.813,0,0,0,1.426,2.04A17.231,17.231,0,0,1,9.3,19.09a4.762,4.762,0,0,1,.67,2.882,2.853,2.853,0,0,1-.216.784A1.062,1.062,0,0,1,9.614,23" transform="translate(90 5)" fill="#375a64"/>
    <path id="Fill_266" data-name="Fill 266" d="M2.219,28a1.92,1.92,0,0,1-.335-.186,3.863,3.863,0,0,1-.815-.739,4.832,4.832,0,0,1-1-3.857,4.649,4.649,0,0,1,.447-1.292,5.026,5.026,0,0,1,.923-1.154,11.708,11.708,0,0,1,2.722-1.692,10.68,10.68,0,0,0,2.908-1.871A6.955,6.955,0,0,0,8.71,13.919c.317-1.252.534-2.518.94-3.693A16,16,0,0,1,11.17,7.008,16.592,16.592,0,0,1,15.15,2.545,15.242,15.242,0,0,1,18.611.493,9.818,9.818,0,0,1,19.634.108,1.938,1.938,0,0,1,20,0c.011.031-.491.189-1.346.59A16.228,16.228,0,0,0,15.269,2.7,16.76,16.76,0,0,0,11.383,7.14,16.035,16.035,0,0,0,9.9,10.313c-.4,1.152-.608,2.4-.929,3.676a7.184,7.184,0,0,1-1.72,3.41,10.8,10.8,0,0,1-2.987,1.908,11.631,11.631,0,0,0-2.682,1.635,4.833,4.833,0,0,0-.891,1.088,4.5,4.5,0,0,0-.441,1.223A4.953,4.953,0,0,0,.377,25.49a4.526,4.526,0,0,0,.774,1.516A5.389,5.389,0,0,0,2.219,28" transform="translate(51 3)" fill="#1a2e35"/>
    <path id="Fill_268" data-name="Fill 268" d="M6.066,22c-.024-.023.233-.257.583-.764a6.438,6.438,0,0,0,.971-2.38,8.8,8.8,0,0,0-.135-3.793,15.069,15.069,0,0,0-1.962-4.269c-.9-1.423-1.875-2.714-2.7-3.935A22.291,22.291,0,0,1,.89,3.465,11.091,11.091,0,0,1,.1.958,6.649,6.649,0,0,1,.01.25a.832.832,0,0,1,0-.25c.027,0,.063.337.2.936a12.5,12.5,0,0,0,.866,2.448A23.768,23.768,0,0,0,3.046,6.715c.827,1.207,1.808,2.494,2.719,3.931A14.883,14.883,0,0,1,7.741,15,8.779,8.779,0,0,1,7.818,18.9a6.168,6.168,0,0,1-1.078,2.4,4.382,4.382,0,0,1-.481.538c-.119.114-.185.17-.192.163" transform="translate(96 7)" fill="#1a2e35"/>
    <path id="Fill_270" data-name="Fill 270" d="M45.689.343,41.271,7.931S19.324,0,6.476,2.311c-4.885.878-10.113,11.824-3,18.852,6.944,6.857,19.364,16.552,42.663,19.689.581.079,10.124,2.1,9.536,2.033S69.059,45,69.059,45l3.279-12.244,26.023,4.033C113.7,35.755,121.2,19.56,111.968,14.347c-8.615-4.863-24.815-5.253-24.815-5.253L81.281,0Z" transform="translate(0 103)" fill="#272422"/>
    <path id="Fill_272" data-name="Fill 272" d="M47.747,38c.068-.414.253-1.53.63-3.817.206-1.222.46-2.71.787-4.424.164-.856.348-1.768.566-2.728.111-.48.23-.972.371-1.474.073-.25.148-.5.24-.756a2.266,2.266,0,0,1,.393-.755l.039.185c-5.512-1.942-12.4-4.508-19.745-7.582-4.516-1.906-8.775-3.832-12.524-5.836A40.6,40.6,0,0,1,13.367,7.65c-1.524-1.116-2.881-2.232-4.153-3.2A22.533,22.533,0,0,0,2.7.657,10.332,10.332,0,0,0,1.561.323,6.619,6.619,0,0,0,.708.14L.18.044A.946.946,0,0,1,0,0,.847.847,0,0,1,.183.016L.718.084A6.21,6.21,0,0,1,1.58.243,9.809,9.809,0,0,1,2.735.555a15.505,15.505,0,0,1,3,1.324,31.511,31.511,0,0,1,3.6,2.412c1.283.965,2.647,2.071,4.169,3.174a40.976,40.976,0,0,0,5.122,3.123c3.743,1.985,8,3.9,12.51,5.805,7.336,3.071,14.216,5.655,19.711,7.628l.154.055-.115.13a2.222,2.222,0,0,0-.34.668c-.09.245-.167.494-.24.741-.143.494-.265.983-.379,1.46-.225.955-.416,1.864-.588,2.718C49,31.5,48.726,32.987,48.5,34.2s-.4,2.151-.527,2.814c-.064.323-.116.569-.156.734a1.844,1.844,0,0,1-.072.247" transform="translate(22 110)" fill="#375a64"/>
    <path id="Fill_274" data-name="Fill 274" d="M53,.754a.526.526,0,0,1-.141-.012L52.453.677C52.094.631,51.576.5,50.892.432A30.354,30.354,0,0,0,45.1.228a43.192,43.192,0,0,0-8.481,1.39c-1.565.417-3.2.907-4.863,1.481s-3.369,1.237-5.111,1.927a47.517,47.517,0,0,1-5.212,1.709c-1.709.469-3.379.835-4.976,1.142-3.2.619-6.1,1-8.542,1.3s-4.42.5-5.787.635L.552,9.962.141,10A.553.553,0,0,1,0,10a.519.519,0,0,1,.138-.03l.407-.061L2.114,9.7l5.775-.723c2.435-.321,5.334-.722,8.517-1.352C18,7.312,19.66,6.942,21.359,6.472a48.05,48.05,0,0,0,5.18-1.7c1.741-.689,3.452-1.352,5.125-1.926s3.313-1.06,4.888-1.472A42.256,42.256,0,0,1,45.089.03a28.679,28.679,0,0,1,5.819.293c.684.083,1.2.233,1.556.3l.4.092A.514.514,0,0,1,53,.754" transform="translate(54 118)" fill="#375a64"/>
    <path id="Fill_276" data-name="Fill 276" d="M21,2.234c.016.176-1.158.458-3.093.632a40.9,40.9,0,0,1-7.586-.093A40.765,40.765,0,0,1,2.885,1.32C1.032.756-.053.241,0,.072.124-.3,4.7.869,10.469,1.445c5.76.61,10.494.4,10.531.789" transform="translate(46 112)" fill="#1a2e35"/>
    <path id="Fill_278" data-name="Fill 278" d="M19,0a5.107,5.107,0,0,1-.839.23c-.273.058-.6.145-.982.263S16.364.729,15.9.9A30.887,30.887,0,0,0,12.652,2.23c-1.189.58-2.47,1.273-3.774,2.074A59.829,59.829,0,0,0,2.515,8.911c-.78.639-1.4,1.169-1.83,1.538A5.364,5.364,0,0,1,0,11a5.385,5.385,0,0,1,.615-.632c.407-.395,1.011-.949,1.777-1.609A50.934,50.934,0,0,1,8.737,4.063a40.313,40.313,0,0,1,3.809-2.069A27.472,27.472,0,0,1,15.838.713c.475-.163.917-.271,1.3-.368a9.115,9.115,0,0,1,1-.218A5.124,5.124,0,0,1,19,0" transform="translate(68 112)" fill="#375a64"/>
    <path id="Fill_280" data-name="Fill 280" d="M10,4.995a6.036,6.036,0,0,1-1.56-.478A32.171,32.171,0,0,1,4.876,2.784L1.421.835A11.381,11.381,0,0,1,0,0,7.209,7.209,0,0,1,1.509.641C2.42,1.087,3.65,1.764,5,2.512S7.6,3.9,8.514,4.316A15.767,15.767,0,0,1,10,4.995" transform="translate(53 118)" fill="#375a64"/>
    <path id="Fill_282" data-name="Fill 282" d="M.645,0A16.686,16.686,0,0,1,.5,2.055,48.306,48.306,0,0,0,.356,7.007a48.589,48.589,0,0,0,.389,4.945A16.533,16.533,0,0,1,.988,14a1.807,1.807,0,0,1-.173-.537c-.091-.349-.2-.858-.313-1.488A33.529,33.529,0,0,1,.258,2.039C.34,1.405.423.894.5.542A1.792,1.792,0,0,1,.645,0" transform="translate(65 104)" fill="#375a64"/>
    <path id="Fill_284" data-name="Fill 284" d="M.769.228C.782.25.681.311.549.466a1.5,1.5,0,0,0-.33.771A1.447,1.447,0,0,0,.543,2.379a1.228,1.228,0,0,0,1.35.258,1.247,1.247,0,0,0,.858-1.084A1.443,1.443,0,0,0,2.259.472,1.476,1.476,0,0,0,1.512.106C1.312.075,1.2.1,1.191.07,1.187.06,1.3,0,1.52,0a1.431,1.431,0,0,1,.861.325A1.6,1.6,0,0,1,3,1.56,1.485,1.485,0,0,1,1.987,2.893,1.463,1.463,0,0,1,.359,2.548,1.609,1.609,0,0,1,.03,1.2,1.45,1.45,0,0,1,.475.391C.642.247.765.217.769.228" transform="translate(67 105)" fill="#375a64"/>
    <path id="Fill_286" data-name="Fill 286" d="M15,0a3.421,3.421,0,0,1-.412.577,16.081,16.081,0,0,1-1.273,1.435A20.474,20.474,0,0,1,11.2,3.886,22.347,22.347,0,0,1,8.317,5.744a21.813,21.813,0,0,1-3.125,1.34,19.034,19.034,0,0,1-2.674.677,14.3,14.3,0,0,1-1.839.221,3.041,3.041,0,0,1-.678,0c0-.057.961-.113,2.483-.431a21.535,21.535,0,0,0,2.632-.731A23.672,23.672,0,0,0,8.194,5.48a24.36,24.36,0,0,0,2.858-1.816,23.276,23.276,0,0,0,2.131-1.8C14.336.753,14.959-.036,15,0" transform="translate(60 96)" fill="#1a2e35"/>
    <path id="Fill_288" data-name="Fill 288" d="M4,.079C4,.154,3.066.155,1.968.41S.04,1.059,0,.993A4.232,4.232,0,0,1,1.9.168,4.412,4.412,0,0,1,4,.079" transform="translate(80 102)" fill="#1a2e35"/>
    <path id="Fill_290" data-name="Fill 290" d="M.811,6.977A20.391,20.391,0,0,0,12.721,0a4.952,4.952,0,0,1-1.17,4.973c1.357.652,2.946.219,4.434.011s3.3,0,4.015,1.338A154.437,154.437,0,0,1,0,6.9" transform="translate(61 96)"/>
    <path id="Fill_292" data-name="Fill 292" d="M15,2.2A7.509,7.509,0,0,0,12.68.734,7.648,7.648,0,0,0,9.74.251a8.241,8.241,0,0,0-3.515.915,15.086,15.086,0,0,0-4.8,4.5,14.35,14.35,0,0,0-1.056,1.7A4.073,4.073,0,0,1,0,8a3.517,3.517,0,0,1,.274-.685,11.438,11.438,0,0,1,.99-1.763c.5-.7,1.141-1.485,1.887-2.345A10.41,10.41,0,0,1,6.1.926,8.3,8.3,0,0,1,9.734,0a7.576,7.576,0,0,1,3.021.555A5.887,5.887,0,0,1,14.5,1.641a3.36,3.36,0,0,1,.386.4c.082.1.121.15.113.156" transform="translate(34 91)" fill="#1a2e35"/>
    <path id="Fill_294" data-name="Fill 294" d="M7.4,0,0,1.553,3.7,15.222,16.787,18l8.981-6.3L27,4.168,19.3,1.292Z" transform="translate(55 42)" fill="#ffbf9d"/>
    <g transform="matrix(1, 0, 0, 1, 0, 0)" filter="url(#Fill_296)">
      <path id="Fill_296-2" data-name="Fill 296" d="M21.529,0s5.053,14.686,14.392,13.329S44.479,2.454,44.479,2.454s9.747,2.973,12.759,6.138,1.247,10.039,1.247,10.039L55.958,31.059l-5.5,23.809s2.1,6.493-3.27,8.1l-1.7-2.664-32.233.913s-6.894,7.954-9.042,5.21S0,58.334,0,58.334L14.795,1.754Z" transform="translate(36 42)" fill="#390b12"/>
    </g>
    <g transform="matrix(1, 0, 0, 1, 0, 0)" filter="url(#Fill_298)">
      <path id="Fill_298-2" data-name="Fill 298" d="M5.292,0C5.551.15,28,16.495,28,16.495s-1.761,13.44,9,11.3c0,0-4.351,11.24-10.242,8.88C25.084,36,4.4,22.889,4.4,22.889L0,13.508Z" transform="translate(85 49)" fill="#390b12"/>
    </g>
    <g transform="matrix(1, 0, 0, 1, 0, 0)" filter="url(#Fill_300)">
      <path id="Fill_300-2" data-name="Fill 300" d="M26,0s-.521.013-1.4.1C20.091.524,3.45,3.919,1.91,15.489,1.1,21.542.873,39.239,0,46.658c0,0,1.392,10.313,1.91,12.224.92,3.4,17.614-2.042,17.614-2.042l.035-32.75L25.479.013" transform="translate(32 43)" fill="#390b12"/>
    </g>
    <path id="Fill_302" data-name="Fill 302" d="M.047,0A.923.923,0,0,1,.074.263a6.417,6.417,0,0,0,.054.744A10.338,10.338,0,0,0,.843,3.654C1.276,4.739,1.935,5.975,2.6,7.388a16.588,16.588,0,0,1,.885,2.285,13.14,13.14,0,0,1,.458,2.582,29.624,29.624,0,0,1-.135,5.03c-.139,1.536-.274,2.923-.476,4.077a16.847,16.847,0,0,1-.669,2.7c-.11.311-.2.548-.276.706A.961.961,0,0,1,2.264,25c-.023-.008.106-.347.29-.974a20.089,20.089,0,0,0,.575-2.693c.175-1.15.288-2.532.412-4.069a31.069,31.069,0,0,0,.112-4.988,13.221,13.221,0,0,0-.443-2.532,16.9,16.9,0,0,0-.856-2.255C1.71,6.081,1.065,4.828.651,3.722A9.494,9.494,0,0,1,.016,1.016a4.481,4.481,0,0,1,0-.755A.906.906,0,0,1,.047,0" transform="translate(47 73)" fill="#1a2e35"/>
    <path id="Fill_304" data-name="Fill 304" d="M.024,0C.065,0,.1.816.273,2.119A29.729,29.729,0,0,0,1.365,7.113c.152.475.305.936.471,1.374a2.047,2.047,0,0,0,.122.3l.175.291c.114.2.222.393.315.592A5.29,5.29,0,0,1,3,11.945,4.263,4.263,0,0,1,2.709,13.5a2.114,2.114,0,0,1-.27.5,5.763,5.763,0,0,0,.38-2.05,5.269,5.269,0,0,0-.58-2.162c-.092-.19-.2-.378-.311-.568l-.179-.289A2.131,2.131,0,0,1,1.6,8.588c-.17-.442-.327-.908-.48-1.387A25.175,25.175,0,0,1,.094,2.143C.027,1.483.01.946,0,.576A2.473,2.473,0,0,1,.024,0" transform="translate(48 69)" fill="#1a2e35"/>
    <path id="Fill_306" data-name="Fill 306" d="M7,10c-.042.014-.272-.643-.73-1.663A23.736,23.736,0,0,0,4.12,4.551a23.5,23.5,0,0,0-2.814-3.3C.509.473-.026.037,0,0A1.7,1.7,0,0,1,.409.266c.254.182.605.469,1.023.842a19.471,19.471,0,0,1,2.9,3.287,19.679,19.679,0,0,1,2.1,3.866c.21.524.361.956.447,1.26A1.762,1.762,0,0,1,7,10" transform="translate(41 54)" fill="#1a2e35"/>
    <path id="Fill_308" data-name="Fill 308" d="M.987,0A6.7,6.7,0,0,1,.873,1.324C.775,2.136.637,3.258.506,4.5S.28,6.865.209,7.681A6.724,6.724,0,0,1,.046,9,5.692,5.692,0,0,1,.008,7.67c.02-.821.085-1.954.215-3.2S.524,2.1.674,1.293A5.681,5.681,0,0,1,.987,0" transform="translate(94 54)" fill="#1a2e35"/>
    <path id="Fill_310" data-name="Fill 310" d="M8,.011c.007.051-.668.117-1.7.422A7.984,7.984,0,0,0,2.727,2.595,10.025,10.025,0,0,0,1.365,4.508,14.578,14.578,0,0,0,.581,6.286L.335,7l-.161.546A1.746,1.746,0,0,1,.006,8a1.758,1.758,0,0,1,.069-.485l.119-.562q.1-.34.212-.731a12.5,12.5,0,0,1,.746-1.834A9.535,9.535,0,0,1,2.537,2.405,7.621,7.621,0,0,1,6.246.247,6.236,6.236,0,0,1,6.972.1,5.161,5.161,0,0,1,7.524.022,1.629,1.629,0,0,1,8,.011" transform="translate(91 68)" fill="#1a2e35"/>
    <path id="Fill_312" data-name="Fill 312" d="M3,17a3.292,3.292,0,0,1-.418-.592,7.679,7.679,0,0,1-.428-.725c-.152-.288-.342-.611-.5-.987a17.47,17.47,0,0,1-.994-2.67A19.064,19.064,0,0,1,.047,8.632,18.845,18.845,0,0,1,.118,5.2,17.018,17.018,0,0,1,.687,2.437c.1-.39.237-.732.343-1.035A7.422,7.422,0,0,1,1.34.635,3.147,3.147,0,0,1,1.662,0c.059.018-.353.938-.755,2.482a19.066,19.066,0,0,0-.494,2.74A20.418,20.418,0,0,0,.368,8.613a20.58,20.58,0,0,0,.575,3.354,19.742,19.742,0,0,0,.918,2.659C2.5,16.11,3.052,16.975,3,17" transform="translate(112 66)" fill="#1a2e35"/>
    <path id="Fill_314" data-name="Fill 314" d="M.6,13A2.666,2.666,0,0,1,.4,12.435a11.059,11.059,0,0,1-.312-1.608A13.419,13.419,0,0,1,.559,5.454,12.355,12.355,0,0,1,3.093.782,2.144,2.144,0,0,1,4.455,0a.9.9,0,0,1,.422.087C4.963.139,5,.171,5,.179A1.45,1.45,0,0,0,4.463.108,2.172,2.172,0,0,0,3.224.917,13.143,13.143,0,0,0,.806,5.537a14.27,14.27,0,0,0-.532,5.268C.4,12.168.646,12.986.6,13" transform="translate(108 66)" fill="#1a2e35"/>
    <path id="Fill_316" data-name="Fill 316" d="M11,0a2.766,2.766,0,0,1-.132.621,5.952,5.952,0,0,1-.219.712c-.1.273-.2.591-.356.923A14.719,14.719,0,0,1,9.066,4.528,16.986,16.986,0,0,1,7.06,6.989,17.181,17.181,0,0,1,4.588,9.006a15.316,15.316,0,0,1-2.3,1.248c-.336.162-.659.265-.936.369a6.234,6.234,0,0,1-.723.23A2.976,2.976,0,0,1,0,11c-.017-.053.876-.29,2.208-.918A16.8,16.8,0,0,0,4.443,8.8a18.3,18.3,0,0,0,2.418-2,18.1,18.1,0,0,0,1.99-2.408,16.244,16.244,0,0,0,1.258-2.213C10.72.862,10.941-.014,11,0" transform="translate(61 76)" fill="#1a2e35"/>
    <path id="Fill_318" data-name="Fill 318" d="M5.379,12.613,2.2,1.311C2.041.761,1.782.113,1.2.011A1.083,1.083,0,0,0,.072.934,5.91,5.91,0,0,0,.044,2.585c.25,2.453.448,4.12,1.624,6.022,2.29,3.705.78,5.5.78,5.5A49.549,49.549,0,0,1,.8,29.409L2.159,35c1.295-4.156,4.248-7.623,4.747-11.937.406-3.519-.565-7.035-1.527-10.45" transform="translate(48 69)" fill="rgba(39,36,34,0.5)"/>
    <path id="Fill_320" data-name="Fill 320" d="M0,1.446C3.84,3.347,7.256,5.969,11,8A16.957,16.957,0,0,0,4.108.678a4.5,4.5,0,0,0-2.6-.654C.6.146-.05.631.087,1.49" transform="translate(92 72)" fill="rgba(39,36,34,0.5)"/>
    <path id="Fill_322" data-name="Fill 322" d="M4.745.223C3.546.193,2.639,1.316,2.052,2.4A17.152,17.152,0,0,0,.113,12.488c.073.625.3,1.377.9,1.5a1.038,1.038,0,0,0,1.061-.65,3.11,3.11,0,0,0,.2-1.341,45.01,45.01,0,0,1,.152-6.353A9.491,9.491,0,0,1,5,0" transform="translate(108 65)" fill="rgba(39,36,34,0.5)"/>
    <path id="Fill_324" data-name="Fill 324" d="M0,1.206a.576.576,0,0,1,.127-.015l.378-.025L1.98,1.088,7.556.834,27.3.005,27.427,0l0,.127c.162,6.566.349,14.12.547,22.119.007.269.013.538.019.8l0,.142-.143,0A196.019,196.019,0,0,0,3.551,24.985L3.444,25l-.028-.1A85.085,85.085,0,0,1,.517,7.584C.388,5.467.364,3.8.365,2.667c0-.568.013-1,.018-1.3,0-.138.008-.247.01-.332A.538.538,0,0,1,.4.928a.461.461,0,0,1,.01.112c0,.086,0,.194.008.333,0,.305.01.737.019,1.294C.463,3.8.51,5.463.659,7.574A87.438,87.438,0,0,0,3.651,24.834l-.135-.087a191.335,191.335,0,0,1,24.337-1.836l-.14.143c-.007-.263-.013-.532-.02-.8-.187-8-.363-15.553-.516-22.12l.131.122L7.562.982l-5.579.185L.508,1.206l-.379,0a.65.65,0,0,1-.128,0" transform="translate(56 68)" fill="#fff"/>
    <path id="Fill_326" data-name="Fill 326" d="M2.992,16c-.084.012-.82-3.559-1.643-7.977S-.075.012.008,0,.827,3.558,1.651,7.978,3.076,15.988,2.992,16" transform="translate(60 70)" fill="#fff"/>
    <path id="Fill_328" data-name="Fill 328" d="M.979,6A16.023,16.023,0,0,1,.357,3.022,16,16,0,0,1,.021,0,16.051,16.051,0,0,1,.643,2.978,16,16,0,0,1,.979,6" transform="translate(63 87)" fill="#fff"/>
    <path id="Fill_330" data-name="Fill 330" d="M.994,13a2.4,2.4,0,0,1-.109-.495c-.058-.322-.131-.792-.212-1.374C.51,9.967.325,8.346.193,6.545S.01,3.1,0,1.918c0-.592,0-1.072.01-1.4A2.507,2.507,0,0,1,.048,0c.03,0,.052.731.1,1.912s.12,2.81.25,4.6S.687,9.929.814,11.1s.209,1.893.18,1.9" transform="translate(68 69)" fill="#fff"/>
    <path id="Fill_332" data-name="Fill 332" d="M.98,8a28.585,28.585,0,0,1-.62-3.981A28.753,28.753,0,0,1,.02,0a28.565,28.565,0,0,1,.62,3.982A28.638,28.638,0,0,1,.98,8" transform="translate(67 84)" fill="#fff"/>
    <path id="Fill_334" data-name="Fill 334" d="M2.984,22a4.589,4.589,0,0,1-.126-.866c-.062-.606-.144-1.4-.242-2.365-.2-2-.5-4.752-.914-7.789S.847,5.2.511,3.217L.115.867A4.5,4.5,0,0,1,.006,0,4.751,4.751,0,0,1,.239.85c.131.549.3,1.348.5,2.337.393,1.978.872,4.72,1.285,7.762s.677,5.8.822,7.805c.073,1,.12,1.812.14,2.372a4.517,4.517,0,0,1,0,.873" transform="translate(71 69)" fill="#fff"/>
    <path id="Fill_336" data-name="Fill 336" d="M.88,23a6.968,6.968,0,0,1-.031-.906c0-.631-.01-1.463-.017-2.468-.016-2.084-.06-4.962-.18-8.137S.356,5.441.214,3.365C.145,2.363.087,1.534.044.906A6.916,6.916,0,0,1,.006,0,7.019,7.019,0,0,1,.131.894c.067.578.15,1.415.241,2.452.183,2.074.382,4.947.5,8.129s.14,6.064.115,8.15C.979,20.669.959,21.512.937,22.1A6.931,6.931,0,0,1,.88,23" transform="translate(78 69)" fill="#fff"/>
    <path id="Fill_338" data-name="Fill 338" d="M.159,10.309a4.638,4.638,0,0,0,2.854.68,9.258,9.258,0,0,0,2.88-.74A8.71,8.71,0,0,0,9.173,8.135a7.355,7.355,0,0,0,1.655-3.758A21.668,21.668,0,0,0,10.967.239a.3.3,0,0,0-.041-.173A.221.221,0,0,0,10.62.058a.627.627,0,0,0-.164.292A15.572,15.572,0,0,1,0,10.02" transform="translate(61 77)" fill="rgba(39,36,34,0.5)"/>
    <g id="Group_342" data-name="Group 342" transform="translate(35 91)">
      <path id="Clip_341-2" data-name="Clip 341" d="M0,0H28.438V58.632H0Z" transform="translate(0.12 0.368)" fill="none"/>
      <g id="Group_342-2" data-name="Group 342" clip-path="url(#clip-path)">
        <path id="Fill_340" data-name="Fill 340" d="M22.59,41.526l-3.223-6.147L12.124.885S5.458-3.005,0,5.526c-.219.343,7.506,25.046,9.662,31.92l.3,6.572s-.383,7.782,0,8.463a3.073,3.073,0,0,0,1.339,1.07,1.878,1.878,0,0,0,1.912,2.14s.191,2.14,1.817,1.848a3.11,3.11,0,0,0,2.2-1.362s0,2.724,1.434,2.432,1.669-1.459,1.934-1.849a30.3,30.3,0,0,0,.568-4.377l-.026-6.59,3.735,3.077c1.078.547,2.658,1.225,3.556.408Z" transform="translate(0.12 0.368)" fill="#ffbf9d"/>
      </g>
    </g>
    <path id="Fill_343" data-name="Fill 343" d="M.379,0a6.482,6.482,0,0,1,.4,3.5C.7,4.4.625,5.223.556,5.975.5,6.607.454,7,.379,7A8.536,8.536,0,0,1,.26,3.494C.436,1.566.242.01.379,0" transform="translate(56 136)" fill="#ff9a6c"/>
    <path id="Fill_345" data-name="Fill 345" d="M.418,0A12.038,12.038,0,0,1,.76,3.5,11.913,11.913,0,0,1,.582,7,12.072,12.072,0,0,1,.24,3.5,11.918,11.918,0,0,1,.418,0" transform="translate(52 141)" fill="#ff9a6c"/>
    <path id="Fill_347" data-name="Fill 347" d="M.78,0A4.431,4.431,0,0,1,.91,2.531,4.964,4.964,0,0,1,.031,5a14.975,14.975,0,0,1,.4-2.5A14.794,14.794,0,0,1,.78,0" transform="translate(48 142)" fill="#ff9a6c"/>
    <path id="Fill_349" data-name="Fill 349" d="M.771,0C.914.008.909.686.759,1.514S.372,3.008.229,3,.091,2.314.241,1.486.628-.008.771,0" transform="translate(46 141)" fill="#ff9a6c"/>
    <g id="Phone-2" data-name="Phone" transform="translate(131 27)">
      <path id="Fill_146-2" data-name="Fill 146" d="M2.572,0C2.471.273,0,22,0,22l9.538-1.611L12,2.437Z" fill="#8f5f43"/>
      <g transform="matrix(1, 0, 0, 1, -131, -27)" filter="url(#Fill_148)">
        <path id="Fill_148-2" data-name="Fill 148" d="M.658,22,0,21.6,2,0,3,.293Z" transform="translate(131 27)" fill="#390b12"/>
      </g>
      <g transform="matrix(1, 0, 0, 1, -131, -27)" filter="url(#Fill_150)">
        <path id="Fill_150-2" data-name="Fill 150" d="M0,.5A.5.5,0,1,0,.5,0,.5.5,0,0,0,0,.5" transform="translate(138 31)" fill="#390b12"/>
      </g>
    </g>
    <path id="Path_4" data-name="Path 4" d="M5.136,0h-4s-2.5,1.5.5,2l3,.5S.936,2,.436,3s4.5,1.5,4.5,1.5A12.443,12.443,0,0,1,1.436,6c-2,.5,3,1.5,3,1.5Z" transform="translate(136.864 36.5)" fill="#ffbf9d"/>
  </g>
  <g id="card" transform="translate(159 34.067)">
    <g id="atm-card" transform="translate(0.433 26.389) rotate(-45)">
      <path id="Path-5" data-name="Path" d="M36,5.659V3.818A3.879,3.879,0,0,0,32.063,0H3.938A3.879,3.879,0,0,0,0,3.818V5.659A.346.346,0,0,0,.352,6h35.3A.346.346,0,0,0,36,5.659Z" transform="translate(0.01 -0.41)" fill="#390b12"/>
      <path id="Shape" d="M3.938,16A3.9,3.9,0,0,1,0,12.138V.345A.349.349,0,0,1,.352,0h35.3A.349.349,0,0,1,36,.345V12.138A3.9,3.9,0,0,1,32.063,16Z" transform="translate(0.01 8.732)" fill="#390b12"/>
    </g>
    <g id="atm" transform="translate(0 56)">
      <g transform="matrix(1, 0, 0, 1, -159, -90.07)" filter="url(#Path)">
        <path id="Path-6" data-name="Path" d="M1,2C1,.9.776,0,.5,0S0,.9,0,2,.224,4,.5,4,1,3.1,1,2Z" transform="translate(170 109.55)" fill="#390b12"/>
      </g>
      <path id="Path-7" data-name="Path" d="M40.033,0H3.967A4.163,4.163,0,0,0,0,4.289V5H44V4.289A4.163,4.163,0,0,0,40.033,0Z" transform="translate(0 -0.515)" fill="#390b12"/>
      <g transform="matrix(1, 0, 0, 1, -159, -90.07)" filter="url(#Path-2)">
        <path id="Path-8" data-name="Path" d="M1.15,6A2.853,2.853,0,0,0,3.791,4.128,3.116,3.116,0,0,0,3.134.846,2.741,2.741,0,0,0,0,.256,4.8,4.8,0,0,1,0,5.744,2.715,2.715,0,0,0,1.15,6Z" transform="translate(172 108.55)" fill="#390b12"/>
      </g>
      <path id="Shape-2" data-name="Shape" d="M3.967,17A4.04,4.04,0,0,1,0,12.938V0H44V12.938A4.04,4.04,0,0,1,40.033,17Z" transform="translate(0 12.485)" fill="#390b12"/>
      <g transform="matrix(1, 0, 0, 1, -159, -90.07)" filter="url(#Path-3)">
        <path id="Path-9" data-name="Path" d="M0,0H44V5H0Z" transform="translate(159 96.55)" fill="#390b12"/>
      </g>
      <g transform="matrix(1, 0, 0, 1, -159, -90.07)" filter="url(#Path-4)">
        <path id="Path-10" data-name="Path" d="M2.849,6A2.717,2.717,0,0,0,4,5.744,4.8,4.8,0,0,1,4,.256,2.744,2.744,0,0,0,.865.846,3.116,3.116,0,0,0,.209,4.127,2.853,2.853,0,0,0,2.849,6Z" transform="translate(165 108.55)" fill="#390b12"/>
      </g>
    </g>
  </g>
</svg>
